<?xml version="1.0" standalone="no"?>
<!DOCTYPE svg PUBLIC "-//W3C//DTD SVG 20010904//EN"
 "http://www.w3.org/TR/2001/REC-SVG-20010904/DTD/svg10.dtd">
<svg version="1.0" xmlns="http://www.w3.org/2000/svg"
 width="512.000000pt" height="512.000000pt" viewBox="0 0 512.000000 512.000000"
 preserveAspectRatio="xMidYMid meet">

<g transform="translate(0.000000,512.000000) scale(0.100000,-0.100000)"
fill="#000000" stroke="none">
<path d="M2390 5114 c-357 -27 -712 -128 -1020 -291 -611 -322 -1074 -888
-1265 -1544 -71 -244 -99 -448 -99 -719 0 -271 28 -475 99 -719 169 -582 549
-1090 1071 -1431 122 -80 365 -202 494 -249 680 -244 1406 -204 2035 113 406
206 735 497 987 876 192 289 330 635 387 970 111 650 -28 1311 -387 1850 -415
623 -1047 1019 -1792 1125 -107 15 -410 26 -510 19z m305 -1827 l131 -402 434
-5 433 -5 -341 -248 c-188 -137 -344 -253 -347 -258 -3 -5 53 -190 125 -410
71 -221 128 -404 126 -406 -2 -3 -160 109 -350 247 l-346 252 -346 -252 c-190
-138 -348 -250 -350 -247 -2 2 54 184 126 404 71 221 130 405 129 409 0 5
-156 122 -346 259 l-347 250 434 5 434 5 131 402 c71 222 132 403 135 403 3 0
64 -181 135 -403z"/>
</g>
</svg>
